solid region.stl
facet normal 0.000000 0.000000 -7.676381
  outer loop
    vertex -0.256064 -0.852743 0.000000
    vertex 4.204327 0.868268 0.000000
    vertex 4.204327 -0.852743 0.000000
  endloop
endfacet
facet normal 0.000000 0.000000 -7.676381
  outer loop
    vertex -0.256064 -0.852743 0.000000
    vertex -0.256064 0.868268 0.000000
    vertex 4.204327 0.868268 0.000000
  endloop
endfacet
facet normal 0.000000 -59.628384 3.154179
  outer loop
    vertex -0.256064 -0.852743 0.000000
    vertex 4.204327 -0.852743 0.000000
    vertex 6.278576 -0.145590 13.368421
  endloop
endfacet
facet normal 0.000000 -49.238083 2.604561
  outer loop
    vertex -0.256064 -0.852743 0.000000
    vertex 6.278576 -0.145590 13.368421
    vertex 2.595412 -0.145590 13.368421
  endloop
endfacet
facet normal 23.007195 0.000000 -3.569804
  outer loop
    vertex 4.204327 -0.852743 0.000000
    vertex 4.204327 0.868268 0.000000
    vertex 6.278576 1.637208 13.368421
  endloop
endfacet
facet normal 23.833193 0.000000 -3.697967
  outer loop
    vertex 4.204327 -0.852743 0.000000
    vertex 6.278576 1.637208 13.368421
    vertex 6.278576 -0.145590 13.368421
  endloop
endfacet
facet normal 0.000000 49.238091 -2.832134
  outer loop
    vertex 4.204327 0.868268 0.000000
    vertex 2.595412 1.637208 13.368421
    vertex 6.278576 1.637208 13.368421
  endloop
endfacet
facet normal 0.000000 59.628384 -3.429775
  outer loop
    vertex 4.204327 0.868268 0.000000
    vertex -0.256064 0.868268 0.000000
    vertex 2.595412 1.637208 13.368421
  endloop
endfacet
facet normal -23.833193 0.000000 5.083605
  outer loop
    vertex -0.256064 -0.852743 0.000000
    vertex 2.595412 -0.145590 13.368421
    vertex 2.595412 1.637208 13.368421
  endloop
endfacet
facet normal -23.007195 0.000000 4.907420
  outer loop
    vertex -0.256064 -0.852743 0.000000
    vertex 2.595412 1.637208 13.368421
    vertex -0.256064 0.868268 0.000000
  endloop
endfacet
facet normal 0.000000 -0.000000 6.566338
  outer loop
    vertex 6.278576 -0.145590 13.368421
    vertex 6.278576 1.637208 13.368421
    vertex 2.595412 -0.145590 13.368421
  endloop
endfacet
facet normal 0.000000 0.000000 6.566338
  outer loop
    vertex 2.595412 -0.145590 13.368421
    vertex 6.278576 1.637208 13.368421
    vertex 2.595412 1.637208 13.368421
  endloop
endfacet
facet normal 0.000000 0.000000 -6.566338
  outer loop
    vertex 2.595412 -0.145590 13.368421
    vertex 6.278576 1.637208 13.368421
    vertex 6.278576 -0.145590 13.368421
  endloop
endfacet
facet normal 0.000000 0.000000 -6.566338
  outer loop
    vertex 2.595412 -0.145590 13.368421
    vertex 2.595412 1.637208 13.368421
    vertex 6.278576 1.637208 13.368421
  endloop
endfacet
facet normal 0.000000 -25.345985 0.316813
  outer loop
    vertex 2.595412 -0.145590 13.368421
    vertex 6.278576 -0.145590 13.368421
    vertex 6.578393 -0.059573 20.250000
  endloop
endfacet
facet normal 0.000000 -17.652363 0.220647
  outer loop
    vertex 2.595412 -0.145590 13.368421
    vertex 6.578393 -0.059573 20.250000
    vertex 4.013231 -0.059573 20.250000
  endloop
endfacet
facet normal 12.268466 0.000000 -0.534513
  outer loop
    vertex 6.278576 -0.145590 13.368421
    vertex 6.278576 1.637208 13.368421
    vertex 6.578393 0.973580 20.250000
  endloop
endfacet
facet normal 7.109726 0.000000 -0.309757
  outer loop
    vertex 6.278576 -0.145590 13.368421
    vertex 6.578393 0.973580 20.250000
    vertex 6.578393 -0.059573 20.250000
  endloop
endfacet
facet normal 0.000000 17.652363 1.702313
  outer loop
    vertex 6.278576 1.637208 13.368421
    vertex 4.013231 0.973580 20.250000
    vertex 6.578393 0.973580 20.250000
  endloop
endfacet
facet normal 0.000000 25.345985 2.444251
  outer loop
    vertex 6.278576 1.637208 13.368421
    vertex 2.595412 1.637208 13.368421
    vertex 4.013231 0.973580 20.250000
  endloop
endfacet
facet normal -7.109726 0.000000 1.464825
  outer loop
    vertex 2.595412 -0.145590 13.368421
    vertex 4.013231 -0.059573 20.250000
    vertex 4.013231 0.973580 20.250000
  endloop
endfacet
facet normal -12.268466 0.000000 2.527686
  outer loop
    vertex 2.595412 -0.145590 13.368421
    vertex 4.013231 0.973580 20.250000
    vertex 2.595412 1.637208 13.368421
  endloop
endfacet
facet normal 0.000000 -0.000000 2.650205
  outer loop
    vertex 6.578393 -0.059573 20.250000
    vertex 6.578393 0.973580 20.250000
    vertex 4.013231 -0.059573 20.250000
  endloop
endfacet
facet normal 0.000000 0.000000 2.650205
  outer loop
    vertex 4.013231 -0.059573 20.250000
    vertex 6.578393 0.973580 20.250000
    vertex 4.013231 0.973580 20.250000
  endloop
endfacet
endsolid region.stl
